<svg width="200" height="200" viewBox="0 0 200 200" fill="none" xmlns="http://www.w3.org/2000/svg">
<g clip-path="url(#clip0_1009_326)">
<path d="M160 0H40C17.9086 0 0 17.9086 0 40V160C0 182.091 17.9086 200 40 200H160C182.091 200 200 182.091 200 160V40C200 17.9086 182.091 0 160 0Z" fill="#003527"/>
<path fill-rule="evenodd" clip-rule="evenodd" d="M103.51 142.36L102.28 143.6C101.03 144.86 98.99 144.86 97.74 143.6L96.5 142.35L34.74 80.02C33.73 79 32 79.72 32 81.15V120.75C32 122.02 32.5 123.23 33.39 124.13L73.97 165.07L94.37 185.67C95.16 186.45 96.02 187.03 96.94 187.39C97.9 187.8 98.94 187.99 100.01 187.99C101.08 187.99 102.12 187.8 103.08 187.39C103.98 187.02 104.85 186.44 105.63 185.67L126.03 165.07L166.61 124.13C167.5 123.23 168 122.02 168 120.75V81.15C168 79.72 166.27 79.01 165.26 80.02L103.5 142.35L103.51 142.36ZM126.04 34.92L105.64 14.32C104.08 12.77 102.05 11.99 100.01 11.99C98.93 11.99 97.9 12.18 96.94 12.59C96.02 12.96 95.15 13.54 94.37 14.31L73.97 34.91L44.87 64.28C44.1 65.06 44.1 66.32 44.87 67.1L64.58 86.97C65.36 87.76 66.64 87.76 67.42 86.97L97.21 56.93L97.72 56.41C98.97 55.14 101.02 55.14 102.27 56.41L102.81 56.96L132.58 86.98C133.36 87.77 134.64 87.77 135.42 86.98L155.13 67.11C155.9 66.33 155.9 65.07 155.13 64.29L126.03 34.92H126.04Z" fill="#03FF67"/>
<path fill-rule="evenodd" clip-rule="evenodd" d="M98.56 154.87L88.6 164.82C87.8 165.62 87.8 166.92 88.6 167.72L98.56 177.67C99.36 178.47 100.66 178.47 101.46 177.67L111.41 167.72C112.21 166.92 112.21 165.62 111.41 164.83L101.46 154.88C100.66 154.08 99.36 154.08 98.56 154.88V154.87Z" fill="#003527"/>
</g>
<defs>
<clipPath id="clip0_1009_326">
<rect width="200" height="200" fill="white"/>
</clipPath>
</defs>
</svg>
