<svg width="245" height="96" viewBox="0 0 245 96" fill="none" xmlns="http://www.w3.org/2000/svg">
<g clip-path="url(#clip0_2962_264)">
<path d="M119.271 91.525H112.871V52H123.171L126.946 74.625C126.996 74.8083 127.03 75.0083 127.046 75.225C127.08 75.425 127.096 75.6167 127.096 75.8L127.121 83.725H127.646L127.671 75.8C127.671 75.6167 127.68 75.425 127.696 75.225C127.73 75.0083 127.763 74.8083 127.796 74.625L131.546 52H141.771V91.525H135.371V74.75C135.371 74.5667 135.38 74.375 135.396 74.175C135.43 73.9583 135.463 73.7583 135.496 73.575L136.821 57.4H136.271L131.121 91.525H123.546L118.371 57.4H117.846L119.171 73.65C119.205 73.8167 119.23 74.0083 119.246 74.225C119.263 74.425 119.271 74.6167 119.271 74.8V91.525Z" fill="#03FF67"/>
<path d="M144.073 51.9995H160.098V58.2745H150.573V68.2995H159.848V74.5745H150.573V85.2745H160.098V91.5245H144.073V51.9995Z" fill="#03FF67"/>
<path d="M172.242 91.6745C168.542 91.6745 165.892 90.8662 164.292 89.2495C162.692 87.6162 161.892 83.7829 161.892 77.7495H168.342C168.342 82.4495 168.659 85.0662 169.292 85.5995C169.925 86.1162 170.9 86.3745 172.217 86.3745C173.517 86.3745 174.484 86.1579 175.117 85.7245C175.767 85.2745 176.092 83.8245 176.092 81.3745C176.092 79.0412 175.642 77.4495 174.742 76.5995C173.859 75.7329 172.392 75.0662 170.342 74.5995C166.942 73.5495 164.684 72.2995 163.567 70.8495C162.467 69.3829 161.917 66.9829 161.917 63.6495C161.917 58.8495 162.75 55.7078 164.417 54.2245C166.084 52.7412 168.675 51.9995 172.192 51.9995C175.725 51.9995 178.325 52.8412 179.992 54.5245C181.659 56.1912 182.492 59.9495 182.492 65.7995H176.017C176.017 61.0662 175.684 58.4662 175.017 57.9995C174.367 57.5328 173.409 57.2995 172.142 57.2995C170.825 57.2995 169.842 57.4912 169.192 57.8745C168.559 58.2578 168.242 59.7828 168.242 62.4495C168.242 64.7995 168.709 66.3745 169.642 67.1745C170.592 67.9579 172.084 68.6079 174.117 69.1245C177.534 70.1412 179.792 71.3412 180.892 72.7245C181.992 74.1079 182.542 76.5329 182.542 79.9995C182.542 84.5662 181.742 87.6579 180.142 89.2745C178.542 90.8745 175.909 91.6745 172.242 91.6745Z" fill="#03FF67"/>
<path d="M189.551 51.9995H199.826L205.851 91.5245H199.226L197.851 81.7995H191.351L190.001 91.5245H183.376L189.551 51.9995ZM192.201 76.6995H197.076L195.076 58.9995C195.01 58.7162 194.96 58.3912 194.926 58.0245C194.91 57.6578 194.901 57.3245 194.901 57.0245L194.926 56.0745H194.376L194.401 57.0245C194.418 57.3245 194.41 57.6578 194.376 58.0245C194.343 58.3912 194.301 58.7245 194.251 59.0245L192.201 76.6995Z" fill="#03FF67"/>
<path d="M216.59 52H223.09V91.525H216.59V52Z" fill="#03FF67"/>
<path d="M237.874 91.5245H231.374V58.2745H225.124V51.9995H244.124V58.2745H235.974V58.8245H236.599C236.983 58.8412 237.291 58.9662 237.524 59.1995C237.758 59.4162 237.874 59.7162 237.874 60.0995V91.5245Z" fill="#03FF67"/>
<path d="M207.092 20.75L207.622 20.875L214.837 4H221.847L214.557 21.33L221.872 43.825H214.862L209.617 28.915L208.052 32.515V43.825H201.547V4H208.052L208.027 14.78C208.027 15.71 207.877 16.92 207.647 17.775L207.092 20.75Z" fill="#03FF67"/>
<path d="M192.996 29.015C192.941 33.84 192.671 36.64 192.201 37.375C191.646 38.205 190.611 38.635 189.126 38.635C187.641 38.635 186.526 38.155 185.921 37.225C185.316 36.295 185.011 31.885 185.011 23.975C185.011 16.065 185.316 11.455 185.921 10.625C186.526 9.795 187.586 9.39 189.126 9.39C190.666 9.39 191.676 9.745 192.201 10.45C192.671 11.095 192.941 13.94 192.996 19.01H199.511C199.366 13.185 198.596 9.265 197.216 7.3C195.651 5.11 192.956 4 189.121 4C185.286 4 182.586 5.135 180.951 7.425C179.286 9.715 178.456 15.235 178.456 23.95C178.456 32.665 179.286 37.98 180.951 40.4C182.616 42.82 185.341 44.025 189.146 44.025C192.951 44.025 195.651 42.84 197.216 40.5C198.596 38.405 199.361 34.565 199.511 29.015H192.996Z" fill="#03FF67"/>
<path d="M162.021 4H172.386L178.466 43.82H171.781L170.396 34.02H163.841L162.476 43.82H155.791L162.021 4ZM164.696 28.885H169.616L167.596 11.05C167.471 10.47 167.421 9.665 167.421 9.035L167.446 8.105H166.891L166.916 9.065C166.941 9.67 166.866 10.475 166.766 11.08L164.696 28.885Z" fill="#03FF67"/>
<path d="M143.826 36.87V37.45H154.266V43.82H139.186V4H145.741V35.56C145.741 36.34 145.211 36.87 144.431 36.87H143.826Z" fill="#03FF67"/>
<path d="M132.846 22.765V22.085C134.436 21.86 135.521 20.975 136.051 19.44C136.631 18.18 136.906 16.265 136.936 13.67V13.37C136.936 10.095 136.406 7.7 135.371 6.215C134.311 4.73 132.141 4 128.866 4H112.871V9.34H116.881V38.485H112.871V43.825H129.061C132.441 43.825 134.661 43.07 135.721 41.535C136.781 40.025 137.311 37.025 137.311 32.57C137.311 26.045 135.871 22.795 132.846 22.77V22.765ZM123.336 9.34H128.706C129.461 9.34 129.966 9.715 130.196 10.45C130.421 11.18 130.546 12.54 130.546 14.48C130.546 18.41 130.141 19.845 128.526 19.845H123.331V9.34H123.336ZM130.396 37.145C130.141 37.975 129.641 38.405 128.881 38.405H123.331V25.08H128.551C129.436 25.08 130.041 25.61 130.341 26.64C130.616 27.675 130.771 29.46 130.771 31.98C130.771 34.5 130.646 36.31 130.391 37.145H130.396Z" fill="#03FF67"/>
<g clip-path="url(#clip1_2962_264)">
<path d="M77.675 0H20.075C9.47113 0 0.875 8.59613 0.875 19.2V76.8C0.875 87.4039 9.47113 96 20.075 96H77.675C88.2789 96 96.875 87.4039 96.875 76.8V19.2C96.875 8.59613 88.2789 0 77.675 0Z" fill="#003527"/>
<path fill-rule="evenodd" clip-rule="evenodd" d="M50.5595 68.333L49.9691 68.9282C49.3691 69.533 48.3899 69.533 47.7899 68.9282L47.1947 68.3282L17.5499 38.4098C17.0651 37.9202 16.2347 38.2658 16.2347 38.9522V57.9602C16.2347 58.5698 16.4747 59.1506 16.9019 59.5826L36.3803 79.2338L46.1723 89.1218C46.5515 89.4962 46.9643 89.7746 47.4059 89.9474C47.8667 90.1442 48.3659 90.2354 48.8795 90.2354C49.3931 90.2354 49.8923 90.1442 50.3531 89.9474C50.7851 89.7698 51.2027 89.4914 51.5771 89.1218L61.3691 79.2338L80.8475 59.5826C81.2747 59.1506 81.5147 58.5698 81.5147 57.9602V38.9522C81.5147 38.2658 80.6843 37.925 80.1995 38.4098L50.5547 68.3282L50.5595 68.333ZM61.3739 16.7618L51.5819 6.87377C50.8331 6.12977 49.8587 5.75537 48.8795 5.75537C48.3611 5.75537 47.8667 5.84657 47.4059 6.04337C46.9643 6.22097 46.5467 6.49937 46.1723 6.86897L36.3803 16.757L22.4123 30.8546C22.0427 31.229 22.0427 31.8338 22.4123 32.2082L31.8731 41.7458C32.2475 42.125 32.8619 42.125 33.2363 41.7458L47.5355 27.3266L47.7803 27.077C48.3803 26.4674 49.3643 26.4674 49.9643 27.077L50.2235 27.341L64.5131 41.7506C64.8875 42.1298 65.5019 42.1298 65.8763 41.7506L75.3371 32.213C75.7067 31.8386 75.7067 31.2338 75.3371 30.8594L61.3691 16.7618H61.3739Z" fill="#03FF67"/>
<path fill-rule="evenodd" clip-rule="evenodd" d="M48.1829 74.3379L43.4021 79.1139C43.0181 79.4979 43.0181 80.1219 43.4021 80.5059L48.1829 85.2819C48.5669 85.6659 49.1909 85.6659 49.5749 85.2819L54.3509 80.5059C54.7349 80.1219 54.7349 79.4979 54.3509 79.1187L49.5749 74.3427C49.1909 73.9587 48.5669 73.9587 48.1829 74.3427V74.3379Z" fill="#003527"/>
</g>
</g>
<defs>
<clipPath id="clip0_2962_264">
<rect width="243.5" height="96" fill="white" transform="translate(0.875)"/>
</clipPath>
<clipPath id="clip1_2962_264">
<rect width="96" height="96" fill="white" transform="translate(0.875)"/>
</clipPath>
</defs>
</svg>
