<svg width="14" height="14" viewBox="0 0 14 14" fill="none" xmlns="http://www.w3.org/2000/svg">
<g clip-path="url(#clip0_1376_1932)">
<path d="M9.82223 7.00046C9.82223 7.54618 9.66042 8.07971 9.35725 8.53406C9.05409 8.9884 8.62304 9.3433 8.11826 9.55419C7.61348 9.76507 7.05746 9.82256 6.52004 9.71938C5.98261 9.61622 5.48773 9.35702 5.09755 8.97434C4.70736 8.59165 4.43928 8.10255 4.32695 7.56845C4.21462 7.03434 4.26305 6.47905 4.46618 5.97231C4.6693 5.46556 5.01805 5.02995 5.46863 4.72018C5.91922 4.41043 6.45154 4.24031 6.99876 4.23122C7.36735 4.22509 7.73347 4.2922 8.07578 4.42862C8.41809 4.56504 8.72973 4.76805 8.99255 5.02581C9.25536 5.28357 9.46408 5.59093 9.60653 5.92995C9.74898 6.26897 9.82232 6.63288 9.82223 7.00046Z" stroke="#F7F7F7" stroke-linecap="round" stroke-linejoin="round"/>
<path d="M9.82221 7.00002V8.20002C9.82221 11.4216 14.886 8.38464 12.2291 4.00924C11.6942 3.09821 10.9306 2.34169 10.0136 1.81406C9.09649 1.28645 8.0575 1.0059 6.99875 1C6.10926 1.00274 5.23144 1.20208 4.42849 1.58366C3.62553 1.96525 2.9174 2.51959 2.35507 3.20679C1.79273 3.89398 1.39018 4.69695 1.17639 5.55788C0.962602 6.41881 0.94289 7.3163 1.11867 8.18573C1.29446 9.05517 1.66137 9.87495 2.19299 10.586C2.72461 11.2971 3.40773 11.8818 4.19316 12.2981C4.97859 12.7143 5.84682 12.9519 6.73533 12.9934C7.62383 13.035 8.51054 12.8796 9.33162 12.5385" stroke="#F7F7F7" stroke-linecap="round" stroke-linejoin="round"/>
</g>
<defs>
<clipPath id="clip0_1376_1932">
<rect width="14" height="14" fill="white"/>
</clipPath>
</defs>
</svg>
