<svg width="14" height="14" viewBox="0 0 14 14" fill="none" xmlns="http://www.w3.org/2000/svg">
<g clip-path="url(#clip0_1376_1933)">
<path d="M5.3826 12.53C4.81533 12.8965 4.13936 13.0562 3.46833 12.9824C2.7973 12.9084 2.17215 12.6054 1.698 12.1241L1.28348 11.7181C1.10175 11.5319 1 11.282 1 11.0216C1 10.7613 1.10175 10.5112 1.28348 10.3251L3.04288 8.58142C3.22721 8.39999 3.4753 8.29834 3.73375 8.29834C3.99218 8.29834 4.24029 8.39999 4.42461 8.58142C4.61049 8.76343 4.86012 8.86534 5.12008 8.86534C5.38004 8.86534 5.62966 8.76343 5.81554 8.58142L8.579 5.81372C8.67118 5.72273 8.74439 5.6143 8.79436 5.49472C8.84432 5.37515 8.87006 5.24681 8.87006 5.11718C8.87006 4.98755 8.84432 4.85922 8.79436 4.73964C8.74439 4.62006 8.67118 4.51163 8.579 4.42064C8.39785 4.23604 8.29635 3.98755 8.29635 3.72872C8.29635 3.46988 8.39785 3.22141 8.579 3.03679L10.3292 1.28392C10.5151 1.10191 10.7647 1 11.0246 1C11.2846 1 11.5342 1.10191 11.7202 1.28392L12.1255 1.69908C12.6059 2.17395 12.9085 2.80007 12.9824 3.47212C13.0562 4.14418 12.8967 4.8212 12.5307 5.38934C10.6239 8.20384 8.1977 10.6275 5.3826 12.53Z" stroke="#F7F7F7" stroke-linecap="round" stroke-linejoin="round"/>
</g>
<defs>
<clipPath id="clip0_1376_1933">
<rect width="14" height="14" fill="white"/>
</clipPath>
</defs>
</svg>
