<svg width="88" height="96" viewBox="0 0 88 96" fill="none" xmlns="http://www.w3.org/2000/svg">
<path d="M68.4267 62.1333V84.6932L48.9066 96V73.4401L68.4267 62.1333Z" fill="#03ff67"/>
<path d="M29.3333 62.1333V84.6932L48.9066 96V73.4401L29.3333 62.1333Z" fill="#03ff67"/>
<path d="M88 50.8265V73.4401L68.4267 84.6932V62.1333L88 50.8265Z" fill="#03ff67"/>
<path d="M39.0934 22.6133L58.6667 11.3066L78.24 22.6133L58.6667 33.8667L39.0934 22.6133Z" fill="#03ff67"/>
<path d="M58.6667 56.4799L78.24 45.1733V22.6133L58.6667 33.8667V56.4799Z" fill="#03ff67"/>
<path d="M19.5733 11.3066L39.0934 0L58.6667 11.3066L39.0934 22.6133L19.5733 11.3066Z" fill="#03ff67"/>
<path d="M19.5733 67.7868L0 56.48V33.8667L19.5733 45.1733V67.7868Z" fill="#03ff67"/>
<path d="M39.0934 33.8667L19.5733 22.6133L0 33.8667L19.5733 45.1733L39.0934 33.8667Z" fill="#03ff67"/>
<path d="M19.5733 90.3466L0 79.0933V56.48L19.5733 67.7868V90.3466Z" fill="#03ff67"/>
</svg>
