<svg width="96" height="96" viewBox="0 0 96 96" fill="none" xmlns="http://www.w3.org/2000/svg">
<path fill-rule="evenodd" clip-rule="evenodd" d="M69.1112 49.1805L49.1995 69.0888C47.6002 70.6895 47.6002 73.2905 49.1995 74.8912L69.1112 94.7995C70.7105 96.4002 73.3095 96.4002 74.9088 94.7995L94.8005 74.8912C96.3998 73.2905 96.3998 70.6895 94.8005 69.1088L74.9088 49.2005C73.3095 47.5998 70.7105 47.5998 69.1112 49.2005V49.1805Z" fill="#03ff67"/>
<path fill-rule="evenodd" clip-rule="evenodd" d="M21.1112 49.1805L1.1995 69.0888C-0.399833 70.6895 -0.399833 73.2905 1.1995 74.8912L21.1112 94.7995C22.7105 96.4002 25.3095 96.4002 26.9088 94.7995L46.8005 74.8912C48.3998 73.2905 48.3998 70.6895 46.8005 69.1088L26.9088 49.2005C25.3095 47.5998 22.7105 47.5998 21.1112 49.2005V49.1805Z" fill="#03ff67"/>
<path fill-rule="evenodd" clip-rule="evenodd" d="M69.1112 1.18047L49.1995 21.0888C47.6002 22.6895 47.6002 25.2905 49.1995 26.8912L69.1112 46.7995C70.7105 48.4002 73.3095 48.4002 74.9088 46.7995L94.8005 26.8912C96.3998 25.2905 96.3998 22.6895 94.8005 21.1088L74.9088 1.2005C73.3095 -0.400167 70.7105 -0.400167 69.1112 1.2005V1.18047Z" fill="#03ff67"/>
<path fill-rule="evenodd" clip-rule="evenodd" d="M21.1112 1.18047L1.1995 21.0888C-0.399833 22.6895 -0.399833 25.2905 1.1995 26.8912L21.1112 46.7995C22.7105 48.4002 25.3095 48.4002 26.9088 46.7995L46.8005 26.8912C48.3998 25.2905 48.3998 22.6895 46.8005 21.1088L26.9088 1.2005C25.3095 -0.400167 22.7105 -0.400167 21.1112 1.2005V1.18047Z" fill="#03ff67"/>
</svg>
