<svg width="98" height="98" viewBox="0 0 98 98" fill="none" xmlns="http://www.w3.org/2000/svg">
<path d="M24.7314 0.609737L0.608856 24.7323L24.7314 48.8549L48.854 24.7323L24.7314 0.609737Z" fill="#03ff67"/>
<path d="M72.9765 0.609924L48.8539 24.7325L24.7314 0.609924H72.9765Z" fill="#03ff67"/>
<path d="M0.6096 73.0176L24.7322 97.1401L48.8547 73.0176L24.7322 48.895L0.6096 73.0176Z" fill="#03ff67"/>
<path d="M0.608891 24.7322L24.7315 48.8547L0.608891 72.9773V24.7322Z" fill="#03ff67"/>
<path d="M97.1391 24.7314L73.0165 0.608826L48.894 24.7314L73.0165 48.854L97.1391 24.7314Z" fill="#03ff67"/>
<path d="M97.0991 72.9773L72.9766 48.8547L97.0991 24.7322V72.9773Z" fill="#03ff67"/>
<path d="M73.0174 97.1393L97.14 73.0167L73.0174 48.8942L48.8949 73.0167L73.0174 97.1393Z" fill="#03ff67"/>
<path d="M24.7314 97.1L48.8539 72.9774L72.9765 97.1H24.7314Z" fill="#03ff67"/>
</svg>
